<?xml version="1.0" encoding="utf-8"?>
<!-- Generator: Adobe Illustrator 17.0.0, SVG Export Plug-In . SVG Version: 6.00 Build 0)  -->
<!DOCTYPE svg PUBLIC "-//W3C//DTD SVG 1.1//EN" "http://www.w3.org/Graphics/SVG/1.1/DTD/svg11.dtd">
<svg version="1.1" id="图层_1" xmlns="http://www.w3.org/2000/svg" xmlns:xlink="http://www.w3.org/1999/xlink" x="0px" y="0px"
	 width="100px" height="100px" viewBox="0 0 100 100" enable-background="new 0 0 100 100" xml:space="preserve">
<path fill="#525151" d="M21.734,26.445v47.11h56.532v-47.11H21.734z M35.867,35.01c3.345,0,6.057,2.876,6.057,6.424
	s-2.712,6.424-6.057,6.424c-3.345,0-6.057-2.876-6.057-6.424S32.522,35.01,35.867,35.01z M29.81,64.99
	c0,0,1.326-12.917,8.076-12.848c6.75,0.069,8.076,8.565,8.076,8.565s3.635-21.413,12.114-21.413
	c8.479,0,12.114,25.696,12.114,25.696L29.81,64.99L29.81,64.99z"/>
</svg>
